<svg width="18" height="18" viewBox="0 0 18 18" fill="none" xmlns="http://www.w3.org/2000/svg">
<path d="M11.5641 2.1689C12.2458 1.95385 12.9837 1.94391 13.6719 2.14051C14.3602 2.33711 14.9633 2.73014 15.3947 3.26319C16.1053 3.05385 16.8055 2.81596 17.5263 2.60662C17.5164 2.92585 17.4299 3.23907 17.2732 3.52372C17.1165 3.80837 16.8935 4.05738 16.6201 4.2528C16.8726 4.27877 17.1281 4.25112 17.3673 4.17197C17.6064 4.09281 17.8228 3.96424 18 3.79606C17.901 4.20987 17.6999 4.59695 17.4123 4.92708C17.1247 5.2572 16.7585 5.52144 16.3421 5.69916C16.095 11.9699 12.9748 16.1662 5.65332 15.9949H5.14874C4.70595 15.9949 0.731121 15.5667 0 14.2441C1.75201 14.4899 3.53888 14.0976 4.98398 13.1498C3.95423 12.8643 2.13158 12.7026 1.82265 10.4093C2.2108 10.5434 2.6321 10.5731 3.03776 10.495C1.76087 9.70519 0.339817 9.0391 0.422197 6.99327C0.819634 7.29882 1.3269 7.45507 1.84325 7.43098C1.10183 7.20261 -0.24714 4.30989 0.895881 2.82547C2.82151 4.54778 4.86041 6.17493 8.48512 6.3367C8.71167 4.20522 9.68993 2.7779 11.5641 2.1689Z" fill="#D22856"/>
</svg>
